<svg height="480pt" viewBox="0 0 480.00402 480" width="480pt" xmlns="http://www.w3.org/2000/svg"><path d="m72.003906 280.003906c0 17.671875 14.328125 32 32 32s32-14.328125 32-32c0-17.675781-14.328125-32-32-32s-32 14.324219-32 32zm48 0c0 8.835938-7.164062 16-16 16-8.835937 0-16-7.164062-16-16 0-8.839844 7.164063-16 16-16 8.835938 0 16 7.160156 16 16zm0 0"/><path d="m8.003906 368.003906h40v56c.035156 30.910156 25.085938 55.960938 56 56h256c4.417969 0 8-3.582031 8-8v-28.402344c.320313-38.339843 4.941406-76.523437 13.777344-113.832031l-15.609375-3.535156c-9.09375 38.46875-13.84375 77.839844-14.167969 117.367187v20.402344h-248c-22.082031-.027344-39.972656-17.921875-40-40v-24.203125c20.816406-1.230469 40.269532-10.769531 53.984375-26.480469l-12-10.636718c-10.609375 12.371094-25.726562 19.980468-41.984375 21.125v-23.804688c0-4.421875-3.582031-8-8-8h-37.136718c7.375-23.640625 25.792968-82.21875 38.136718-117.347656.191406-.527344.320313-1.078125.390625-1.636719 7.625-58.703125 48.578125-107.671875 105.007813-125.554687l-4.796875-15.269532c-62.097657 19.667969-107.273438 73.394532-116 137.941407-15.761719 45.066406-40.992188 126.664062-41.25 127.503906-.75 2.429687-.3007815 5.070313 1.207031 7.113281 1.511719 2.042969 3.902344 3.25 6.441406 3.25zm0 0"/><path d="m344.324219 353.601562-15.761719-2.785156c-1.101562 6.234375-2.101562 12.402344-2.992188 18.503906l15.832032 2.320313c.871094-5.941406 1.84375-11.953125 2.921875-18.039063zm0 0"/><path d="m320.003906 439.9375 16 .128906c.164063-17.597656 1.269532-35.175781 3.320313-52.65625l-15.886719-1.839844c-2.121094 18.046876-3.265625 36.195313-3.433594 54.367188zm0 0"/><path d="m312.003906 208.003906c22.089844 0 40-17.910156 40-40 0-22.09375-17.910156-40-40-40s-40 17.90625-40 40c.027344 22.078125 17.917969 39.972656 40 40zm0-64c13.253906 0 24 10.742188 24 24 0 13.253906-10.746094 24-24 24s-24-10.746094-24-24c0-13.257812 10.746094-24 24-24zm0 0"/><path d="m312.003906 256.003906c48.601563 0 88-39.402344 88-88 0-48.601562-39.398437-88-88-88-48.601562 0-88 39.398438-88 88 .058594 48.574219 39.421875 87.941406 88 88zm0-160c39.765625 0 72 32.234375 72 72 0 39.761719-32.234375 72-72 72s-72-32.238281-72-72c.046875-39.746094 32.253906-71.953125 72-72zm0 0"/><path d="m197.796875 110.355469c-1.074219 2.117187-2.082031 4.277343-3.03125 6.453125-1.601563 3.632812-3 7.378906-4.257813 11.203125h-30.503906c-8.835937 0-16 7.160156-16 16v48c0 8.835937 7.164063 16 16 16h30.511719c1.980469 6.054687 4.414063 11.957031 7.28125 17.644531l-21.554687 21.546875c-6.25 6.246094-6.25 16.382813 0 22.632813l33.9375 33.933593c6.25 6.25 16.382812 6.25 22.632812 0l21.542969-21.550781c2.121093 1.070312 4.28125 2.078125 6.457031 3.03125 3.632812 1.601562 7.375 3 11.199219 4.257812v30.496094c0 8.835938 7.164062 16 16 16h48c8.835937 0 16-7.164062 16-16v-30.515625c6.058593-1.976562 11.957031-4.410156 17.648437-7.277343l21.542969 21.550781c6.25 6.25 16.382813 6.25 22.632813 0l33.945312-33.9375c6.25-6.246094 6.25-16.382813 0-22.628907l-21.5625-21.546874c2.867188-5.691407 5.296875-11.589844 7.273438-17.644532h30.511718c8.835938 0 16-7.164062 16-16v-48c0-8.839844-7.164062-16-16-16h-30.511718c-1.980469-6.058594-4.414063-11.960937-7.28125-17.648437l21.5625-21.554688c6.246093-6.246093 6.246093-16.375 0-22.621093l-33.945313-33.945313c-6.25-6.25-16.382813-6.25-22.632813 0l-21.542968 21.601563c-5.691406-2.882813-11.589844-5.332032-17.648438-7.320313v-30.511719c0-8.839844-7.164062-15.99999975-16-15.99999975h-48c-8.835937 0-16 7.16015575-16 15.99999975v30.511719c-3.816406 1.246094-7.558594 2.671875-11.199218 4.246094-2.175782.953125-4.335938 1.960937-6.457032 3.03125l-21.542968-21.558594c-6.25-6.246094-16.375-6.246094-22.625 0l-33.9375 33.945313c-6.25 6.246093-6.25 16.382812 0 22.628906zm23.703125-66.808594 25.742188 25.75c2.542968 2.542969 6.472656 3.078125 9.601562 1.304687 3.359375-1.902343 6.8125-3.625 10.351562-5.167968 4.847657-2.105469 9.839844-3.867188 14.9375-5.273438 3.46875-.957031 5.871094-4.113281 5.871094-7.710937v-36.445313h48v36.445313c0 3.597656 2.398438 6.753906 5.863282 7.710937 8.828124 2.417969 17.324218 5.910156 25.296874 10.402344 3.128907 1.773438 7.058594 1.238281 9.601563-1.304688l25.75-25.75 33.945313 33.949219-25.753907 25.746094c-2.542969 2.542969-3.074219 6.46875-1.304687 9.597656 4.492187 7.976563 7.984375 16.46875 10.402344 25.296875.960937 3.464844 4.113281 5.867188 7.710937 5.863282h36.488281v48h-36.449218c-3.59375 0-6.75 2.398437-7.710938 5.863281-2.414062 8.828125-5.910156 17.324219-10.398438 25.296875-1.773437 3.128906-1.242187 7.058594 1.300782 9.601562l25.753906 25.75-33.953125 33.9375-25.742187-25.703125c-2.542969-2.542969-6.472657-3.078125-9.601563-1.304687-7.972656 4.492187-16.46875 7.984375-25.296875 10.398437-3.464844.960938-5.863281 4.117188-5.863281 7.714844v36.488281h-48.039063v-36.449218c0-3.597657-2.402344-6.753907-5.871094-7.710938-5.097656-1.40625-10.085937-3.167969-14.9375-5.273438-3.539062-1.539062-6.992187-3.265624-10.351562-5.167968-1.203125-.683594-2.5625-1.042969-3.945312-1.039063-2.121094 0-4.15625.84375-5.65625 2.34375l-25.75 25.742188-33.9375-33.941407 25.746093-25.707031c2.542969-2.542969 3.074219-6.46875 1.304688-9.597656-4.492188-7.976563-7.984375-16.46875-10.402344-25.296875-.949219-3.496094-4.128906-5.917969-7.75-5.902344h-36.449219v-48h36.449219c3.597656 0 6.753906-2.40625 7.710937-5.875 1.40625-5.09375 3.167969-10.085937 5.273438-14.933594 1.539062-3.539062 3.265625-6.996093 5.167969-10.351562 1.769531-3.132812 1.238281-7.058594-1.304688-9.601562l-25.746093-25.753907zm0 0"/></svg>