<svg xmlns="http://www.w3.org/2000/svg" width="1170.018" height="58.887" viewBox="0 0 1170.018 58.887">
  <g id="Group_4420" data-name="Group 4420" transform="translate(-215 -798)">
    <g id="wework" transform="translate(485 814)">
      <path id="Union_7" data-name="Union 7" d="M27.446,19.941c0-4.765,3.794-8.471,8.912-8.471,4.324,0,6.617,2.559,6.617,5.383,0,.706-.176,1.236-1.5,1.236H33.622c-.97,0-1.059.088-1.059.705a5.491,5.491,0,0,0,5.824,5.559,4.212,4.212,0,0,0,3.882-1.941.92.92,0,0,1,1.059.882,8.1,8.1,0,0,1-7.235,4.324C30.534,27.618,27.446,24.088,27.446,19.941Zm5.383-4.059c0,.529.618.529,1.941.529h1.588a3.582,3.582,0,0,0,1.676-.353c.177-.088.265-.53.265-.882a1.953,1.953,0,0,0-2.206-2.03A3.276,3.276,0,0,0,32.828,15.883Zm37.941,3.882c-.088-5.383,4.588-8.383,9.53-8.383,4.853,0,9.264,2.736,9.264,8.029,0,5.471-4.411,8.118-9.529,8.118C75.181,27.441,70.858,24.882,70.769,19.765Zm6-.882c0,3.971,1.412,6.882,3.794,6.882s3.177-2.47,3.088-5.823c0-3.618-1.236-6.795-3.53-6.795-.044,0-.088,0-.131,0C78.2,13.143,76.77,14.919,76.77,18.883ZM62.563,27.265c-.882-2.029-3-6.441-4.235-8.824-1.059,1.941-3.53,6.971-4.5,8.824-.264.264-.529.264-.97.264s-.706,0-.97-.264c-2.03-4.235-4.059-8.559-6.089-12.53-.618-1.059-.97-1.235-1.676-1.411l-.706-.177c-.264-.264-.264-1.147.088-1.323,1.676.088,3,.088,4.765.088h8.383c2.559,0,4.677,0,7.323-.088.442,0,.442,1.147.088,1.323l-.618.088c-.97.177-1.5.353-1.5.53a3.046,3.046,0,0,0,.353,1.148C63,16.765,64.24,19.147,65.122,21c.971-2.206,1.677-4.059,2.294-5.735a4.79,4.79,0,0,0,.353-1.5q0-.264-1.059-.53l-.705-.176c-.265-.264-.265-1.147.176-1.323,1.323.088,2.382.088,3.353.088,1.236,0,2.294,0,3.176-.088a.95.95,0,0,1,.088,1.323l-.441.176c-1.324.265-1.677.618-2.294,2.03-1.942,3.882-3.794,8.029-5.559,12-.265.264-.53.264-.971.264S62.828,27.529,62.563,27.265ZM51.446,13.853a5.486,5.486,0,0,0,.353,1.236C52.328,16.411,54,19.765,54.71,21a26.238,26.238,0,0,0,2.206-4.5A5.867,5.867,0,0,0,57,15.353c0-.53-.706-1.765-1.5-1.853a13.215,13.215,0,0,0-1.941-.176C52.24,13.324,51.446,13.5,51.446,13.853ZM19.328,27.265c-.882-2.029-3-6.441-4.236-8.824-1.059,1.941-3.529,6.971-4.5,8.824-.265.264-.53.264-.97.264s-.706,0-.971-.264c-1.941-4.235-3.971-8.559-6-12.442-.618-1.058-.97-1.235-1.676-1.411l-.794-.177c-.265-.264-.265-1.147.176-1.323C2.034,12,3.358,12,5.122,12h8.294c2.648,0,4.677,0,7.324-.088.441,0,.441,1.147.088,1.323H20.3c-.97.177-1.5.353-1.5.53a3.03,3.03,0,0,0,.353,1.148c.794,1.853,1.941,4.235,2.823,6.088.97-2.206,1.676-4.059,2.294-5.735a4.805,4.805,0,0,0,.353-1.5q0-.264-1.059-.53l-.706-.176c-.264-.264-.264-1.147.176-1.323,1.412.088,2.382.088,3.354.088,1.235,0,2.294,0,3.176-.088a.95.95,0,0,1,.088,1.323l-.53.176c-1.324.265-1.676.618-2.294,2.03-1.941,3.794-3.794,7.941-5.559,12-.264.264-.529.264-.97.264S19.593,27.529,19.328,27.265ZM8.3,13.853a2.955,2.955,0,0,0,.353,1.236c.618,1.323,2.206,4.677,2.912,5.911.53-1.059,1.941-3.705,2.206-4.5a5.866,5.866,0,0,0,.088-1.147,2.546,2.546,0,0,0-1.5-1.853,12.18,12.18,0,0,0-1.941-.176C9.093,13.324,8.3,13.5,8.3,13.853ZM105.888,27c-1.854,0-3.618.088-5.03.088-.353-.176-.353-1.059-.088-1.324l.794-.088c1.5-.176,1.676-.441,1.676-3.088V6c0-1.5,0-1.941-.882-2.382l-.706-.353a.929.929,0,0,1,0-1.148A53.258,53.258,0,0,0,108,0a1,1,0,0,1,.706.264c-.088,1.5-.088,3.088-.088,5.471V17.559c0,.441.088.53.618.53a3.043,3.043,0,0,0,2.382-1.059l1.765-1.853c.794-.882.97-1.236.97-1.5,0-.176-.441-.353-.794-.353l-1.059-.177c-.353-.353-.353-1.147.088-1.323h.97a65.193,65.193,0,0,0,7.853-.53c.442.176.442.97.177,1.324l-1.324.264a6.963,6.963,0,0,0-2.736,1.324,15.375,15.375,0,0,0-2.735,2.205c-.176.265-.264.353-.264.53a1.536,1.536,0,0,0,.264.618c.706,1.235,4.412,6.353,5.471,7.147a4.535,4.535,0,0,0,2.47.882l.618.088A.894.894,0,0,1,123.182,27c-1.324-.088-2.824-.088-5.206-.088-2.47,0-3.971.088-5.117.088a.885.885,0,0,1-.177-1.324l.53-.088c.442-.088.618-.176.618-.265a3.719,3.719,0,0,0-.706-1.236l-2.912-4.059a1.074,1.074,0,0,0-1.059-.53c-.264,0-.53.177-.53.882v2.206c0,2.648.176,2.912,1.588,3.088l.618.088a.961.961,0,0,1,0,1.324C109.5,27,107.74,27,105.888,27ZM93.27,26.912c-1.676,0-3.53,0-4.853.088a.959.959,0,0,1,0-1.324l.794-.088c1.323-.088,1.5-.442,1.5-3.088V16.941h-.089c0-1.5,0-1.941-.794-2.382l-.617-.353a.927.927,0,0,1,0-1.148A30.27,30.27,0,0,0,95.3,10.764c.353,0,.618.088.706.353-.088.794-.176,1.235-.176,1.588,0,.264.088.353.442.441,1.147-.617,2.294-1.853,4.059-1.853a2.2,2.2,0,0,1,2.294,2.206,2.4,2.4,0,0,1-2.648,2.471,2.372,2.372,0,0,1-1.588-.706c-.97-.706-1.323-.794-1.588-.794-.617,0-.794.794-.794,2.294v5.823c0,2.648.177,2.912,1.5,3l1.324.088a.961.961,0,0,1,0,1.324C96.8,26.912,95.211,26.912,93.27,26.912Z" transform="translate(0 0)" fill="#bcc5c5"/>
    </g>
    <g id="tmobile" transform="translate(749 815)">
      <path id="Union_6" data-name="Union 6" d="M76.854,23.206a8.054,8.054,0,0,1-2.648-5.118,14.969,14.969,0,0,1,0-3.971A8.652,8.652,0,0,1,76.06,9.794,5.65,5.65,0,0,1,80.206,7.5a6.661,6.661,0,0,1,3.882.706A6.774,6.774,0,0,1,87,11.382a10.559,10.559,0,0,1,.971,5.206,10.533,10.533,0,0,1-1.324,4.853,6.777,6.777,0,0,1-2.824,2.647,6.582,6.582,0,0,1-2.834.63A6.162,6.162,0,0,1,76.854,23.206ZM80.295,8.647a3.711,3.711,0,0,0-2.382,2.471,12.949,12.949,0,0,0-.618,4.059,19.726,19.726,0,0,0,.353,4.588,5.8,5.8,0,0,0,1.235,2.823,2.9,2.9,0,0,0,4.059.088,5.935,5.935,0,0,0,1.236-2.47,19.433,19.433,0,0,0,.441-5.029A15.036,15.036,0,0,0,84,11.118a4.784,4.784,0,0,0-1.324-1.942,2.967,2.967,0,0,0-1.774-.6A2.8,2.8,0,0,0,80.295,8.647ZM125.383,23.47a7.568,7.568,0,0,1-2.294-3.177,12.508,12.508,0,0,1-.706-4.765,11.624,11.624,0,0,1,1.236-4.853,6.568,6.568,0,0,1,2.735-2.647,5.481,5.481,0,0,1,4.412-.176,5.963,5.963,0,0,1,2.823,2.293,10.638,10.638,0,0,1,1.588,5.912h-9.441a15.932,15.932,0,0,0,.53,4.588,4.365,4.365,0,0,0,1.235,2.029,3.013,3.013,0,0,0,2.118.618,3.308,3.308,0,0,0,2.206-.706,6.715,6.715,0,0,0,2.029-2.912l1.059.53a8.421,8.421,0,0,1-2.648,3.441,5.28,5.28,0,0,1-3,.971q-.167.011-.337.011A6.363,6.363,0,0,1,125.383,23.47ZM127.766,9a4.755,4.755,0,0,0-1.236,1.412,10.187,10.187,0,0,0-.794,4.323h6.177a10.139,10.139,0,0,0-.706-4.323A3.539,3.539,0,0,0,130.06,9a2.153,2.153,0,0,0-2.294,0ZM96.177,24.353a7.606,7.606,0,0,1-2.912-1.765.659.659,0,0,0-.794,0,9.167,9.167,0,0,0-1.059,1.5H90.266a8.752,8.752,0,0,0,.353-3V5.117A17.021,17.021,0,0,0,90.53,3,1.739,1.739,0,0,0,90,1.941a2.54,2.54,0,0,0-1.412-.264,1.741,1.741,0,0,0,.177-.97C90.442.617,92.03.529,93.707.441v9.795a4.118,4.118,0,0,1,2.471-2.382,5.515,5.515,0,0,1,4.941.882,6.661,6.661,0,0,1,2.118,2.823,9.861,9.861,0,0,1,.706,4.5A10.786,10.786,0,0,1,102.706,21a6.5,6.5,0,0,1-2.735,2.824,5.511,5.511,0,0,1-2.643.609A8.69,8.69,0,0,1,96.177,24.353Zm.53-15.441A3.55,3.55,0,0,0,94.5,10.764a8.082,8.082,0,0,0-.97,3.794,19.257,19.257,0,0,0,.176,4.5,5.741,5.741,0,0,0,1.412,3.265,3,3,0,0,0,3.353.706,3.712,3.712,0,0,0,1.588-2.206,16.053,16.053,0,0,0,.618-5.029,13.228,13.228,0,0,0-.706-4.854,3.537,3.537,0,0,0-1.148-1.588,2.712,2.712,0,0,0-1.557-.508A2.312,2.312,0,0,0,96.707,8.912Zm8.558,15.265V23.03a2.817,2.817,0,0,0,1.677-.265c.441-.264.529-.882.617-1.323.088-.971.088-1.853.088-2.824V11.294a2.43,2.43,0,0,0-.441-1.765c-.442-.442-1.148-.353-1.676-.442a2.239,2.239,0,0,1-.176-1.059l5.029-.265V20.47a3.555,3.555,0,0,0,.441,2.118c.442.53,1.236.442,1.942.442v1.147Zm8.647-.088V22.941a3.639,3.639,0,0,0,1.676-.177,1.683,1.683,0,0,0,.618-1.235,23.977,23.977,0,0,0,.088-2.559V4.588a7.246,7.246,0,0,0-.176-1.941,1.283,1.283,0,0,0-.53-.794,9.073,9.073,0,0,0-1.5-.088V.706l5.029-.265V20.294a4.662,4.662,0,0,0,.353,2.206c.442.53,1.236.442,1.942.442v1.147Zm-49.148,0V22.941a4.5,4.5,0,0,0,1.853-.265,1.459,1.459,0,0,0,.706-1.147,19.2,19.2,0,0,0,.088-2.294V2.735c-2.03,7.147-4.059,14.206-6.089,21.353H60.265c-2.03-7.147-4.059-14.206-6.089-21.353V18.794a6.854,6.854,0,0,0,.353,2.648,2.407,2.407,0,0,0,1.235,1.235,3.724,3.724,0,0,0,1.588.265v1.147H50.206V22.941a2.95,2.95,0,0,0,1.942-.53,3.036,3.036,0,0,0,.794-2.382c.088-1.853,0-3.794,0-5.647V4.588a5.357,5.357,0,0,0-.265-2.029,1.2,1.2,0,0,0-.97-.618,9.083,9.083,0,0,0-1.5-.088V.706h6.706c1.676,5.735,3.265,11.47,4.941,17.206L66.883.706h6.706V1.853a4.482,4.482,0,0,0-2.118.353,1.276,1.276,0,0,0-.618.883,11.962,11.962,0,0,0-.176,1.765V20.647c.088.706.088,1.5.618,1.941a3.5,3.5,0,0,0,2.117.353v1.147Zm-60.088,0V22.852a6.183,6.183,0,0,0,2.559-.264,1.212,1.212,0,0,0,.706-.97,7.248,7.248,0,0,0,.176-1.942V1.147a8.433,8.433,0,0,0-2.559.264A5.3,5.3,0,0,0,2.382,4.235a9.636,9.636,0,0,0-.97,4.235A5.431,5.431,0,0,1,.264,8.382C.353,5.559.441,2.823.441,0H19.323c.088,2.823.088,5.559.176,8.382a5.029,5.029,0,0,0-1.147.088,16.049,16.049,0,0,0-.97-4.059,5.023,5.023,0,0,0-2.206-2.647,6.815,6.815,0,0,0-3.529-.618V19.676a6.617,6.617,0,0,0,.176,1.854,1.405,1.405,0,0,0,.794,1.059,6.184,6.184,0,0,0,2.559.264v1.236ZM139.5,15.971V11.03h4.853v4.941Zm-95.913,0V11.03h4.853v4.941Zm-14.471,0V11.03h4.853v4.941Zm-14.294,0V11.03h4.853v4.941ZM0,15.971V11.03H4.853v4.941Zm145.413-5.559a1.658,1.658,0,0,1-.882-1.853,1.514,1.514,0,0,1,1.235-1.411,1.577,1.577,0,0,1,1.588.441,1.865,1.865,0,0,1,.53,1.5,1.715,1.715,0,0,1-.794,1.236,1.61,1.61,0,0,1-.9.277A1.738,1.738,0,0,1,145.413,10.412Zm.353-3a1.66,1.66,0,0,0-1.059,1.324,1.361,1.361,0,0,0,.882,1.411,1.554,1.554,0,0,0,1.853-.617,1.635,1.635,0,0,0-.177-1.676,1.387,1.387,0,0,0-1.078-.509A1.337,1.337,0,0,0,145.765,7.412Zm.794,2.206a3.079,3.079,0,0,0-.441-.706c-.088-.176-.353-.088-.53-.176v.794h-.264a9.116,9.116,0,0,0,.088-1.676,2.825,2.825,0,0,1,1.236.088.5.5,0,0,1-.353.882,2.74,2.74,0,0,1,.618.794Zm-.882-.97a1.928,1.928,0,0,0,.706-.089.25.25,0,0,0,0-.441h-.706ZM107.913,4.235a1.952,1.952,0,0,1-1.236-2.03A2.2,2.2,0,0,1,108.265.529a1.664,1.664,0,0,1,1.676.53,2.122,2.122,0,0,1,.177,2.559,1.722,1.722,0,0,1-1.467.773A1.822,1.822,0,0,1,107.913,4.235Z" transform="translate(0)" fill="#bcc5c5"/>
    </g>
    <g id="Group_4343" data-name="Group 4343" transform="translate(1036 815.036)">
      <g id="Group_4342" data-name="Group 4342" transform="translate(35.852 -0.036)">
        <path id="Path_2055" data-name="Path 2055" d="M40.977,10.713A12.758,12.758,0,0,1,55.033.083a12.957,12.957,0,0,1,11.42,10.805C67.419,5.266,72.075.523,77.785.083A12.806,12.806,0,0,1,91.929,11.328c.878,6.764-4.832,13.089-11.42,13.616-5.007.7-9.839-2.2-12.474-6.325,2.2-.527,4.3-1.054,6.5-1.581,2.987,3.6,9.312,2.284,10.454-2.284q-18.58-.132-37.159,0c1.142,4.568,7.467,5.886,10.454,2.284,2.2.527,4.392.966,6.5,1.581-2.635,4.217-7.467,7.028-12.474,6.325C45.545,24.417,39.747,17.653,40.977,10.713Zm6.94-.615q5.8.132,11.6,0c-1.054-2.46-3.338-4.568-6.237-4.129C50.64,5.881,48.883,7.9,47.917,10.1Zm25.564,0q5.8.132,11.6,0c-1.054-2.2-2.9-4.217-5.447-4.129C76.731,5.53,74.447,7.638,73.481,10.1Z" transform="translate(-40.811 0.036)" fill="#bcc5c5"/>
      </g>
      <path id="Path_2056" data-name="Path 2056" d="M0,.9C2.548.9,5.007.9,7.555.988c1.23,4.919,2.46,9.751,3.69,14.671C12.562,10.739,13.88,5.907,15.2.988h6.149c1.406,4.919,2.723,9.751,4.041,14.671,1.23-4.919,2.46-9.751,3.69-14.671h7.467c-2.46,7.818-4.919,15.549-7.467,23.367H22.313c-1.406-5.1-2.723-10.19-4.129-15.285-1.406,5.1-2.723,10.19-4.129,15.285H7.291C4.919,16.537,2.372,8.718,0,.9Z" transform="translate(0 -0.114)" fill="#bcc5c5"/>
      <path id="Path_2057" data-name="Path 2057" d="M96.778,1h8.7l3.953,6.061c1.318-2.02,2.635-4.041,3.865-6.061H121.9c-2.635,3.6-5.447,7.2-8.082,10.805,3.163,4.129,6.237,8.346,9.4,12.474h-8.873c-1.581-2.46-3.25-4.832-4.832-7.2-1.669,2.372-3.338,4.832-4.919,7.2H95.9c2.987-4.217,6.061-8.346,9.136-12.474C102.313,8.2,99.414,4.69,96.778,1Z" transform="translate(-11.654 -0.126)" fill="#bcc5c5"/>
    </g>
    <g id="Group_4382" data-name="Group 4382" transform="translate(-5 -5)">
      <path id="Path_1899" data-name="Path 1899" d="M8,0V18.714h4.068V2.837Zm4.068,27.665H8v8.142l4.068,4.063Zm7.323-12.609L15.323,12.2v6.509h4.068ZM15.323,27.665V42.721l2.034,2.031,2.034-2.031V27.665ZM25.9,14.988,21.832,12.2V39.87L25.9,35.88ZM33.224,9.3,29.155,6.509V33.36l4.068-4Z" transform="translate(218.509 810)" fill="#bcc5c5" fill-rule="evenodd"/>
      <path id="Path_1900" data-name="Path 1900" d="M0,25.255v8.089L4.06,37.46v-8.09H17.9V25.255Zm43.2,6.133a3.134,3.134,0,0,0,.149.906,3.021,3.021,0,0,0,.482.937,2.752,2.752,0,0,0,.851.74,2.549,2.549,0,0,0,1.284.3,2.642,2.642,0,0,0,1.312-.3,2.72,2.72,0,0,0,.862-.74,2.831,2.831,0,0,0,.472-.957,3.58,3.58,0,0,0,.138-.928,3.241,3.241,0,0,0-.169-1.028,2.859,2.859,0,0,0-.521-.936,2.6,2.6,0,0,0-.882-.68,2.8,2.8,0,0,0-1.233-.257,2.557,2.557,0,0,0-1.233.278,2.761,2.761,0,0,0-.852.71,2.933,2.933,0,0,0-.5.946,3.366,3.366,0,0,0-.16,1.009Zm8.877,5.679H48.747V35.834h-.039a2.637,2.637,0,0,1-.561.72,3.133,3.133,0,0,1-.781.514,3.906,3.906,0,0,1-.932.3,5.23,5.23,0,0,1-.972.093,5.448,5.448,0,0,1-2.365-.494,5.14,5.14,0,0,1-1.754-1.338,6.056,6.056,0,0,1-1.092-1.946,7.1,7.1,0,0,1-.381-2.335,6.671,6.671,0,0,1,.461-2.532,6,6,0,0,1,1.222-1.924,5.221,5.221,0,0,1,1.774-1.212,5.492,5.492,0,0,1,2.133-.422,4.434,4.434,0,0,1,1.222.155,3.981,3.981,0,0,1,.942.391,2.961,2.961,0,0,1,.662.515,3.2,3.2,0,0,1,.421.545h.041V25.645h3.328V37.069Zm8.473-2.892a2.679,2.679,0,0,0,2.064-.9,2.855,2.855,0,0,0,.557-.928,2.947,2.947,0,0,0,.011-2.067,2.967,2.967,0,0,0-.537-.928,2.771,2.771,0,0,0-.88-.682,2.912,2.912,0,0,0-2.429,0,2.786,2.786,0,0,0-.88.682,2.98,2.98,0,0,0-.537.928,2.947,2.947,0,0,0,.011,2.067,2.869,2.869,0,0,0,.557.928,2.679,2.679,0,0,0,2.064.9Zm-6.032-8.534h3.157v1.242h.061a4.564,4.564,0,0,1,1.356-1.141,4.259,4.259,0,0,1,2.146-.488,5.074,5.074,0,0,1,2.539.591,5.285,5.285,0,0,1,1.7,1.5,6.025,6.025,0,0,1,.952,2,7.967,7.967,0,0,1,.293,2.067,6.51,6.51,0,0,1-.405,2.3,5.818,5.818,0,0,1-1.133,1.883,5.388,5.388,0,0,1-1.731,1.273,5.127,5.127,0,0,1-2.2.468,4.778,4.778,0,0,1-1.326-.163,5.008,5.008,0,0,1-.971-.387,3.576,3.576,0,0,1-.678-.46,4.643,4.643,0,0,1-.405-.4v4.788H54.516ZM74.38,34.176a2.679,2.679,0,0,0,2.064-.9A2.855,2.855,0,0,0,77,32.353a2.947,2.947,0,0,0,.011-2.067,2.967,2.967,0,0,0-.537-.928,2.77,2.77,0,0,0-.88-.682,2.912,2.912,0,0,0-2.429,0,2.786,2.786,0,0,0-.88.682,2.98,2.98,0,0,0-.537.928,2.947,2.947,0,0,0,.011,2.067,2.869,2.869,0,0,0,.557.928,2.679,2.679,0,0,0,2.064.9Zm-6.032-8.534H71.5v1.242h.061a4.565,4.565,0,0,1,1.356-1.141,4.259,4.259,0,0,1,2.146-.488,5.074,5.074,0,0,1,2.539.591,5.285,5.285,0,0,1,1.7,1.5,6.025,6.025,0,0,1,.952,2,7.967,7.967,0,0,1,.293,2.067,6.51,6.51,0,0,1-.405,2.3,5.818,5.818,0,0,1-1.133,1.883,5.388,5.388,0,0,1-1.731,1.273,5.127,5.127,0,0,1-2.2.468,4.778,4.778,0,0,1-1.326-.163,5.008,5.008,0,0,1-.971-.387,3.576,3.576,0,0,1-.678-.46,4.642,4.642,0,0,1-.405-.4v4.788H68.348ZM81.985,27.7,81.366,22h3.255l-.636,5.7h-2Zm4.264-2.064h3.19V26.8h.041a4.864,4.864,0,0,1,.34-.467,2.5,2.5,0,0,1,.576-.507,3.566,3.566,0,0,1,.9-.407,4.364,4.364,0,0,1,1.3-.168,5.028,5.028,0,0,1,1.635.277,4.042,4.042,0,0,1,1.286.675,5.04,5.04,0,0,1,.464.467,2.705,2.705,0,0,1,.423.683,5.174,5.174,0,0,1,.308,1,6.943,6.943,0,0,1,.124,1.4v6.887H93.41V30.633q0-.3-.031-.685a2.179,2.179,0,0,0-.2-.744,1.489,1.489,0,0,0-.526-.605,1.825,1.825,0,0,0-1.039-.248,1.992,1.992,0,0,0-1.131.269,1.714,1.714,0,0,0-.576.635,2.025,2.025,0,0,0-.216.753c-.02.26-.031.474-.031.646v5.993H86.248ZM99.072,27.7,98.453,22h3.255l-.636,5.7h-2Zm3.45-2.064h2.992V26.8h.038a4.36,4.36,0,0,1,.269-.467,2.123,2.123,0,0,1,.469-.507,2.728,2.728,0,0,1,.768-.407,3.465,3.465,0,0,1,1.16-.168v3.314a7.6,7.6,0,0,0-1.017.1,2.1,2.1,0,0,0-.795.3,1.433,1.433,0,0,0-.518.616,2.425,2.425,0,0,0-.182,1.012v6.053h-3.184Zm9.9,5.726a3.114,3.114,0,0,0,.214,1.159,2.734,2.734,0,0,0,1.46,1.52,2.6,2.6,0,0,0,2.083,0,2.734,2.734,0,0,0,1.459-1.522,3.239,3.239,0,0,0,0-2.316,2.734,2.734,0,0,0-1.46-1.52,2.6,2.6,0,0,0-2.083,0,2.734,2.734,0,0,0-1.459,1.522,3.1,3.1,0,0,0-.214,1.157Zm-3.388,0a6.488,6.488,0,0,1,.378-2.14,6.046,6.046,0,0,1,1.133-1.967,5.859,5.859,0,0,1,1.9-1.438,6.777,6.777,0,0,1,5.386,0,5.857,5.857,0,0,1,1.9,1.438,6.031,6.031,0,0,1,1.133,1.966,6.253,6.253,0,0,1,0,4.28,6.031,6.031,0,0,1-1.133,1.967,5.859,5.859,0,0,1-1.9,1.438,6.777,6.777,0,0,1-5.386,0,5.857,5.857,0,0,1-1.9-1.438,6.031,6.031,0,0,1-1.133-1.966,6.493,6.493,0,0,1-.378-2.14Zm13.019,6.1H125.3V22H122.05Zm5.7,0H131V22h-3.255Z" transform="translate(220 805.9)" fill="#bcc5c5" fill-rule="evenodd"/>
    </g>
    <g id="Group_4383" data-name="Group 4383" transform="translate(-23.982 0)">
      <path id="Path_2058" data-name="Path 2058" d="M309.144,6.776c-.489-.666-.988-1.238-1.384-1.883a6.709,6.709,0,0,1-.812-1.779,1.5,1.5,0,0,1,1.519-2.05,2.964,2.964,0,0,0,2.248-.676,2.318,2.318,0,0,1,2.248-.146,9.7,9.7,0,0,1,1.769.718,22.874,22.874,0,0,1,8.907,8.73,4.787,4.787,0,0,1,.458.926,1.893,1.893,0,0,0,1.3,1.238c.739.239,1.478.489,2.216.718,3.226,1.02,4.891,3.34,5.453,6.566a5.86,5.86,0,0,1,.062,1.759,3.553,3.553,0,0,1-2.154,2.9,9.287,9.287,0,0,1-3.621.822c-1.571.083-3.153.083-4.724.125a6.455,6.455,0,0,0-1.249.135c.281.083.572.156.843.26a2.926,2.926,0,0,1,1.873,1.748,1.926,1.926,0,0,1-.947,2.477,6.441,6.441,0,0,1-1.79.437.706.706,0,0,0-.6.364,15.444,15.444,0,0,1-10.926,7.7,15.7,15.7,0,0,1-17.242-9.6,14.328,14.328,0,0,1-.739-9.448.729.729,0,0,0-.114-.52,3.483,3.483,0,0,1,2.6-5.494,1.032,1.032,0,0,0,.624-.354,15.51,15.51,0,0,1,13.4-5.754A5.282,5.282,0,0,0,309.144,6.776Zm2-5.317c0,.052-.01.114-.01.166a18.987,18.987,0,0,1,6.16,4.422c2.393,2.393,4.266,5.078,4.256,6.129-.26-.354-.52-.728-.8-1.072a43.982,43.982,0,0,0-7.013-6.472,14.7,14.7,0,0,0-2.674-1.582,9.742,9.742,0,0,0-2.32-.666c-.531-.094-.687.1-.437.583a13.33,13.33,0,0,0,1.509,2.4,28.479,28.479,0,0,0,6.15,5.172c.968.656,1.977,1.259,3,1.9a3.416,3.416,0,0,1-2.279,1.415,3.7,3.7,0,0,1-2.1-.635c-1.009-.6-1.987-1.269-3.007-1.852a11.965,11.965,0,0,0-8.345-1.519,12.677,12.677,0,0,0-7.242,4.183.634.634,0,0,1-.791.229,2.117,2.117,0,0,0-2.06,3.59.606.606,0,0,1,.2.749,11.788,11.788,0,0,0-.427,6.1,12.457,12.457,0,0,0,18,8.98,14.477,14.477,0,0,0,4.589-3.777,9.98,9.98,0,0,0-6.66-.926,9.546,9.546,0,0,1,.978-1.29c2.393-2.633,2.591-5.754.458-8.376a6.181,6.181,0,0,0-6.2-2.435,6.034,6.034,0,0,0-4.964,4.349,7.664,7.664,0,0,0,.416,5.224c.135.354.281.7.458,1.124-2.466-1.686-2.986-5.931-1.165-8.834a7.9,7.9,0,0,1,10.437-2.581,7.672,7.672,0,0,1,3.486,4.672,6.681,6.681,0,0,1-1.582,6.691c.978.146,1.509-.541,2.164-1,.551-.4.989-.791.614-1.54-.01-.01.01-.031.021-.052a.078.078,0,0,1,.052.01c.062.062.125.125.177.187a10.373,10.373,0,0,0,4.724,3,7,7,0,0,0,3.07.364c.406-.062.791-.187.916-.645a.945.945,0,0,0-.479-1.061,5.519,5.519,0,0,0-1.321-.572A4.588,4.588,0,0,1,319.008,25a3.48,3.48,0,0,1-.978-2.789c.645.916,1.155,2.06,2.591,1.332-.76-1.134-.947-1.6-.905-2.3.4.375.78.739,1.186,1.093a4.417,4.417,0,0,0,2.882,1.155c.759.01,1.529.01,2.289-.031a12.379,12.379,0,0,0,4.079-.676,2.5,2.5,0,0,0,1.758-2.643,4.991,4.991,0,0,0-.1-.874c-.5-2.7-1.873-4.662-4.6-5.484-.416-.125-.822-.271-1.238-.385a4.717,4.717,0,0,1-3.288-2.7,20.254,20.254,0,0,0-8.865-8.782,5.537,5.537,0,0,0-1.561-.531,4.067,4.067,0,0,0-1.113.073ZM305.1,58.5H301.7V44.527c1.155,0,2.3-.01,3.434,0a29.953,29.953,0,0,1,3.059.125,4.5,4.5,0,0,1,3.892,5.088,4.17,4.17,0,0,1-3.35,4.027,2.8,2.8,0,0,0,3.382,1.571v3.153a5.472,5.472,0,0,1-5.213-1.863c-.583-.7-1.134-1.415-1.81-2.258V58.5Zm-.01-6.94c.468,0,.884.01,1.3,0a5.527,5.527,0,0,0,.822-.094A1.825,1.825,0,0,0,308.7,49.6a1.713,1.713,0,0,0-1.446-1.821,19.965,19.965,0,0,0-2.112-.156,1.851,1.851,0,0,0-.052.281v3.652Z" transform="translate(1050.17 797.975)" fill="#bcc5c5"/>
      <path id="Path_2059" data-name="Path 2059" d="M620.318,440.589v1.082H617.3V430.547c0-2.237.8-2.976,3.111-2.82v4.266a4.5,4.5,0,0,1,2.331-1.113,5.118,5.118,0,0,1,5.8,4.464,6.511,6.511,0,0,1-.728,4.214,5.105,5.105,0,0,1-5.39,2.383,3.181,3.181,0,0,1-2.1-1.353Zm.011-4.173a2.579,2.579,0,0,0,2.539,2.716,2.647,2.647,0,0,0,2.622-2.664,2.582,2.582,0,1,0-5.161-.052Zm12.258-8.678v4.183a5.021,5.021,0,0,1,7.055.884c2.435,3.132.874,8.137-2.83,9.094a4.105,4.105,0,0,1-4.329-1.217c-.021.354-.031.655-.052.988h-2.986V430.537c.01-2.237.833-3,3.143-2.8Zm-.114,8.657a2.541,2.541,0,0,0,2.5,2.737A2.609,2.609,0,0,0,637.6,436.5a2.576,2.576,0,0,0-2.539-2.705,2.542,2.542,0,0,0-2.591,2.6Z" transform="translate(757.914 414.795)" fill="#bcc5c5"/>
      <path id="Path_2060" data-name="Path 2060" d="M84.587,459.232c.333-.884.541-1.03,1.446-1.03.541,0,1.072.01,1.613.01.031,0,.062.031.115.052v10.4c-.78,0-1.55.042-2.32-.01-.52-.031-.687-.5-.822-.936a4.867,4.867,0,0,1-8.116-2.57,5.747,5.747,0,0,1,1.457-5.858,4.935,4.935,0,0,1,4.6-1.332,3.255,3.255,0,0,1,2.029,1.28Zm.031,4.214a2.592,2.592,0,1,0-5.182.021,2.592,2.592,0,1,0,5.182-.021Z" transform="translate(1242.657 387.796)" fill="#bcc5c5"/>
      <path id="Path_2061" data-name="Path 2061" d="M502.361,459.178c.333-.926.52-1.051,1.478-1.051h1.675v10.478c-.728,0-1.436.031-2.143-.01-.614-.031-.864-.479-.978-1.041a4.424,4.424,0,0,1-5.671.76,5.4,5.4,0,0,1-2.622-5.338,5.185,5.185,0,0,1,3.018-4.724,4.859,4.859,0,0,1,3.132-.406,3.191,3.191,0,0,1,2.112,1.332Zm-5.14,4.214a2.6,2.6,0,1,0,2.549-2.685,2.542,2.542,0,0,0-2.549,2.685Z" transform="translate(868.305 387.881)" fill="#bcc5c5"/>
      <path id="Path_2062" data-name="Path 2062" d="M290.069,435.785c.957,1.925,2.1,3.538,4.61,3.163v2.789c-2.352,0-4.391-.583-5.775-2.643-.51-.76-1-1.53-1.571-2.414v5.016H284.2V427.72c.364,0,.708-.021,1.051,0a2.1,2.1,0,0,1,2.06,2.227c.01,1.478,0,2.945,0,4.422v.656c.843-1.093,1.623-2.04,2.31-3.038a1.566,1.566,0,0,1,1.571-.78c.874.073,1.758.021,2.757.021-1.342,1.571-2.622,3.08-3.881,4.558Z" transform="translate(1056.353 414.792)" fill="#bcc5c5"/>
      <path id="Path_2063" data-name="Path 2063" d="M3.283,430.753H.12c-.427-1.977.5-3.153,2.456-3.153H9.818v3.132H6.873v10.9a18.32,18.32,0,0,1-2.06-.135,2.1,2.1,0,0,1-1.53-2.258c-.01-2.633,0-5.276,0-7.908Zm25.181,3.3H25.405c-.094-.624-.52-.791-1.082-.76-.354.021-.718.146-.728.52a1,1,0,0,0,.364.76,4.99,4.99,0,0,0,1.176.52c.583.208,1.186.375,1.769.593,2.57.988,2.206,4.006.749,5.234a5.172,5.172,0,0,1-6.056.135,3.626,3.626,0,0,1-1.342-2.581h1.967c.239,0,.489.011.728,0a.457.457,0,0,1,.541.333,1.251,1.251,0,0,0,1.946.312.72.72,0,0,0-.156-1.155,8.089,8.089,0,0,0-1.217-.562c-.593-.239-1.207-.427-1.79-.687-2.726-1.207-2.112-3.964-.51-5.13a4.9,4.9,0,0,1,5.255-.135,3.375,3.375,0,0,1,1.446,2.6Z" transform="translate(1310.965 414.892)" fill="#bcc5c5"/>
      <path id="Path_2064" data-name="Path 2064" d="M895.73,427.73v3.434h1.988v2.393H895.73v1.779c0,.551-.01,1.113.011,1.665a1.377,1.377,0,0,0,1.436,1.5c.166.021.343.021.541.031v3.07a4.538,4.538,0,0,1-4.943-3.247,7.771,7.771,0,0,1-.187-1.7c-.021-2.091-.01-4.193-.01-6.285.01-2.06,1.03-2.934,3.153-2.643Z" transform="translate(511.282 414.824)" fill="#bcc5c5"/>
      <path id="Path_2065" data-name="Path 2065" d="M853.722,461.345v10.406H850.6v-.562c0-2.424.063-4.849-.021-7.273C850.507,461.605,852.13,461.075,853.722,461.345Z" transform="translate(548.91 384.715)" fill="#bcc5c5"/>
      <path id="Path_2066" data-name="Path 2066" d="M851.853,427.2a1.619,1.619,0,0,1-1.655-1.623,1.641,1.641,0,0,1,1.613-1.675,1.665,1.665,0,0,1,1.665,1.644,1.632,1.632,0,0,1-1.623,1.655Z" transform="translate(549.249 418.207)" fill="#bcc5c5"/>
      <path id="Path_2067" data-name="Path 2067" d="M625.5,146.825a.931.931,0,0,1-.936.957,1.409,1.409,0,0,1-1.363-1.353.884.884,0,0,1,.989-.936A1.381,1.381,0,0,1,625.5,146.825Z" transform="translate(752.628 667.645)" fill="#bcc5c5"/>
    </g>
  </g>
</svg>
