<svg id="Droplr" xmlns="http://www.w3.org/2000/svg" width="130.147" height="40.976" viewBox="0 0 130.147 40.976">
  <path id="Path_2070" data-name="Path 2070" d="M190.816,0h6.127a1.458,1.458,0,0,1,1.323,1.444c.011,6.5-.011,12.994.011,19.485a4.229,4.229,0,0,0,2.074,3.756c.645.407,1.45.439,2.111.815a1.05,1.05,0,0,1,.5.973c.011,1.963,0,3.931.005,5.894a1.519,1.519,0,0,1-1.476,1.455,10.969,10.969,0,0,1-6.571-1.8,12.136,12.136,0,0,1-4.508-5.307,17.365,17.365,0,0,1-.942-6.666q0-9.309,0-18.607A1.449,1.449,0,0,1,190.816,0Z" transform="translate(-89.225)" fill="#6e53a3"/>
  <path id="Path_2071" data-name="Path 2071" d="M17.523,2.859a1.486,1.486,0,0,1,1.349-.952c1.958-.016,3.92-.026,5.878-.026a1.514,1.514,0,0,1,1.481,1.481,19.788,19.788,0,0,1-.339,5.809,12.411,12.411,0,0,1-4.153,5.7c-2.291,1.915-5.365,2.5-8.275,2.518a4.626,4.626,0,0,0-4.444,3.037,4.206,4.206,0,0,0,.936,4.169,4.352,4.352,0,0,0,7.232-1.254c.577-1.365.206-2.878.339-4.307a1.414,1.414,0,0,1,1.323-1.143c1.915-.021,3.83-.021,5.74-.032a1.646,1.646,0,0,1,1.455.746c.4.6.222,1.36.27,2.042a14.044,14.044,0,0,1-1.106,6.179A13.124,13.124,0,0,1,11.428,34.6a13.124,13.124,0,0,1-8.1-4.27A12.99,12.99,0,0,1,0,21.905v-.434A13.113,13.113,0,0,1,12.428,8.71a8.453,8.453,0,0,0,1.825-.19,4.34,4.34,0,0,0,3.169-3.979A6.4,6.4,0,0,1,17.523,2.859Z" transform="translate(0 -0.885)" fill="#6e53a3"/>
  <path id="Path_2072" data-name="Path 2072" d="M65.512,15.564a2.992,2.992,0,0,1,1.725-.005,1.523,1.523,0,0,1,.868,1.36c.037,1.852.053,3.709.037,5.56a1.6,1.6,0,0,1-1.254,1.481A7.292,7.292,0,0,0,63.5,25.368a3.479,3.479,0,0,0-.9,2.561c-.005,3.889,0,7.777-.005,11.666a1.463,1.463,0,0,1-1.386,1.5q-2.936.016-5.873,0a1.617,1.617,0,0,1-1.534-1.64q-.008-9.507.016-19.015a2.483,2.483,0,0,1,2.227-2.487,3.47,3.47,0,0,1,1.487.307c.7.175,1.254-.386,1.857-.63A28.413,28.413,0,0,1,65.512,15.564Z" transform="translate(-25.335 -7.263)" fill="#6e53a3"/>
  <path id="Path_2073" data-name="Path 2073" d="M93.353,15.578c.46.005,1.016-.354,1.391.026a.819.819,0,0,1,.222.582c.005,1.857,0,3.714,0,5.571a3.517,3.517,0,0,1-.28,1.545c-.661,1.407-2.19,2.206-2.7,3.709a3.925,3.925,0,0,0,2.344,4.957,4.178,4.178,0,0,0,3.693-.36A3.928,3.928,0,0,0,99.691,27.2a6.059,6.059,0,0,0-1.672-2.413,4.063,4.063,0,0,1-1.354-2.577c-.032-2.01-.005-4.021-.011-6.031a.816.816,0,0,1,.471-.751,12.978,12.978,0,0,1,8.587,4.439,12.7,12.7,0,0,1,3.09,9.216,12.842,12.842,0,0,1-6.137,10.1A13.094,13.094,0,0,1,84.587,34.73a12.791,12.791,0,0,1,4.846-17.708A12.549,12.549,0,0,1,93.353,15.578Z" transform="translate(-38.997 -7.266)" fill="#6e53a3"/>
  <path id="Path_2074" data-name="Path 2074" d="M139.19,19.813a13.192,13.192,0,0,1,21.12,1.868,12.827,12.827,0,0,1,.513,12.449,13.1,13.1,0,0,1-10.068,7.148,21.4,21.4,0,0,0-3.084.333,4.349,4.349,0,0,0-2.984,3.968c-.037.72.148,1.577-.434,2.132-.973.921-2.5.153-3.661.5h0c-.852-.021-2.561-.058-3.418-.074a1.541,1.541,0,0,1-1.3-1.524c-.011-2.132-.233-4.354.582-6.381a12.424,12.424,0,0,1,12.4-7.544,4.587,4.587,0,0,0,4.412-3.317,4.261,4.261,0,0,0-1.466-4.3,4.349,4.349,0,0,0-3.624-.915,4.412,4.412,0,0,0-3.233,2.762c-.487,1.339-.132,2.783-.3,4.164a1.418,1.418,0,0,1-1.354,1.09c-1.9.005-3.815,0-5.719.005A1.643,1.643,0,0,1,135.9,30.8a17.381,17.381,0,0,1,.661-6.412A12.907,12.907,0,0,1,139.19,19.813Z" transform="translate(-63.973 -7.237)" fill="#6e53a3"/>
  <path id="Path_2075" data-name="Path 2075" d="M230.469,15.535a4.725,4.725,0,0,1,1.54-.132,1.5,1.5,0,0,1,1.164,1.328c.053,1.91.058,3.825.042,5.735a1.634,1.634,0,0,1-1.349,1.466,6.757,6.757,0,0,0-3.37,1.46,3.542,3.542,0,0,0-.82,2.5c-.005,3.9,0,7.8-.005,11.7a1.47,1.47,0,0,1-1.508,1.46c-1.915-.005-3.825.011-5.74-.005a1.6,1.6,0,0,1-1.545-1.614q-.008-9.555.021-19.1a2.491,2.491,0,0,1,2.434-2.439c.7-.016,1.36.6,2.058.249A26.84,26.84,0,0,1,230.469,15.535Z" transform="translate(-103.076 -7.24)" fill="#6e53a3"/>
</svg>
