<svg height="479pt" viewBox="-55 1 479 479.99639" width="479pt" xmlns="http://www.w3.org/2000/svg"><path d="m240.5 119.996094v.160156c-.125 8.757812-7.242188 15.804688-16 15.839844h-80c-8.8125-.066406-15.9375-7.191406-16-16 .023438-8.824219 7.171875-15.972656 16-16h80c8.808594.066406 15.933594 7.191406 16 16zm0 0" fill="#bddbff"/><path d="m248.5 311.996094c0 23.992187-13.441406 45.960937-34.800781 56.878906-1.671875-.582031-3.429688-.878906-5.199219-.878906h-48c-1.773438 0-3.53125.296875-5.203125.878906-28-14.355469-41.410156-46.941406-31.625-76.851562 9.785156-29.910157 39.863281-48.265626 70.9375-43.292969 31.074219 4.972656 53.921875 31.796875 53.890625 63.265625zm0 0" fill="#bddbff"/><path d="m213.699219 368.875c6.4375 2.246094 10.761719 8.304688 10.800781 15.121094-.066406 8.808594-7.191406 15.933594-16 16h-48c-8.828125-.027344-15.976562-7.175782-16-16-.023438-4.246094 1.679688-8.316406 4.71875-11.28125 1.691406-1.746094 3.773438-3.0625 6.078125-3.839844 1.671875-.582031 3.429687-.878906 5.203125-.878906h48c1.769531 0 3.527344.296875 5.199219.878906zm0 0" fill="#bddbff"/><path d="m160.5 399.996094h48c0 13.253906-10.746094 24-24 24-13.257812 0-24-10.746094-24-24zm0 0" fill="#bddbff"/><g fill="#3d9ae2"><path d="m243.976562 133.910156c1.308594-1.851562 2.34375-3.875 3.082032-6.019531 3.296875.542969 6.433594 1.792969 9.199218 3.664063 5.566407 3.757812 12.089844 5.839843 18.800782 6.007812 2.121094 0 4.238281-.195312 6.328125-.574219 8.785156-1.496093 16.613281-6.425781 21.765625-13.695312 2.757812-4.347657 7.21875-7.332031 12.285156-8.226563 5.070312-.890625 10.28125.386719 14.355469 3.53125 7.328125 5.082032 16.375 7.03125 25.144531 5.421875l-2.785156-15.75c-5.066406.878907-10.269532-.398437-14.351563-3.527343-15.285156-10.449219-36.113281-6.773438-46.902343 8.269531-2.757813 4.347656-7.21875 7.332031-12.289063 8.226562-2.261719.4375-4.589844.382813-6.832031-.152343 4.664062-1.296876 8.980468-3.621094 12.625-6.808594 6.859375-5.695313 11.179687-13.882813 12-22.761719.210937-5.140625 2.582031-9.957031 6.527344-13.261719 3.835937-3.25 8.859374-4.746094 13.847656-4.121094h.679687c8.777344.660157 17.457031-2.171874 24.152344-7.878906l-10.277344-12.242187c-3.835937 3.253906-8.859375 4.75-13.851562 4.128906h-.679688c-18.355469-1.242187-34.375 12.339844-36.152343 30.65625-.214844 5.140625-2.585938 9.953125-6.527344 13.261719-3.789063 3.226562-8.753906 4.71875-13.695313 4.121094h-.480469c-4.988281-.320313-9.988281.359374-14.710937 2-2.203125-3.832032-5.421875-6.984376-9.304687-9.101563l35.769531-71.503906c1.242187-2.488281 1.105469-5.441407-.363281-7.804688-1.46875-2.359375-4.058594-3.789062-6.835938-3.773437-5.636719.050781-11.046875-2.203125-14.976562-6.238282-14.125-13.011718-35.863282-13.011718-49.984376 0-3.96875 4-9.371093 6.246094-15.003906 6.246094-5.636718 0-11.035156-2.246094-15.003906-6.246094-14.136719-13.003906-35.878906-13.003906-50.015625 0-3.945313 4.039063-9.371094 6.292969-15.015625 6.238282-2.773438 0-5.351562 1.433594-6.808594 3.792968-1.460937 2.355469-1.59375 5.304688-.351562 7.785157l35.726562 71.453125c-6.054687 3.230468-10.417968 8.921875-11.960937 15.609375s-.117188 13.714843 3.914062 19.273437c-73.351562 19.703125-124.386719 86.132813-124.519531 162.085938v144c.023438 22.082031 17.917969 39.972656 40 40h288c22.078125-.027344 39.972656-17.917969 40-40v-144c-.136719-75.953125-51.171875-142.382813-124.523438-162.085938zm-127.476562-103.808594c4.769531-1.816406 9.175781-4.480468 13.007812-7.855468 3.972657-4 9.375-6.25 15.015626-6.25 5.636718 0 11.042968 2.25 15.015624 6.25 14.128907 13 35.867188 13 50 0 3.964844-3.996094 9.359376-6.246094 14.992188-6.246094 5.628906 0 11.027344 2.25 14.992188 6.246094 3.820312 3.375 8.21875 6.035156 12.984374 7.855468l-32.953124 65.894532h-70.113282zm116 89.894532c0 4.417968-3.582031 8-8 8h-80c-4.421875 0-8-3.582032-8-8 0-4.417969 3.578125-8 8-8h80c4.417969 0 8 3.582031 8 8zm120 320c0 13.253906-10.746094 24-24 24h-288c-13.257812 0-24-10.746094-24-24v-144c.089844-83.910156 68.089844-151.90625 152-152h32c83.90625.09375 151.90625 68.089844 152 152zm0 0"/><path d="m256.5 311.996094c.078125-33.90625-23.507812-63.273438-56.632812-70.511719s-66.808594 9.613281-80.878907 40.464844c-14.066406 30.847656-4.707031 67.335937 22.476563 87.597656-4.769532 6.160156-6.210938 14.269531-3.859375 21.695313 2.351562 7.425781 8.199219 13.222656 15.644531 15.515624 3.238281 14.660157 16.234375 25.101563 31.25 25.101563s28.011719-10.441406 31.246094-25.101563c7.445312-2.292968 13.289062-8.089843 15.644531-15.515624 2.351563-7.425782.914063-15.53125-3.851563-21.695313 18.238282-13.5 28.984376-34.859375 28.960938-57.550781zm-72 104c-5.691406-.015625-10.941406-3.066406-13.777344-8h27.550782c-2.835938 4.933594-8.085938 7.984375-13.773438 8zm24-24h-48c-4.421875 0-8-3.582032-8-8 0-4.417969 3.578125-8 8-8h48c4.417969 0 8 3.582031 8 8 0 4.417968-3.582031 8-8 8zm3.839844-31.609375c-1.269532-.234375-2.554688-.367188-3.839844-.390625h-48c-1.289062.027344-2.570312.15625-3.832031.382812-22.023438-12.613281-32.808594-38.464844-26.28125-62.992187 6.527343-24.527344 28.734375-41.597657 54.117187-41.597657 25.378906 0 47.585938 17.070313 54.113282 41.597657 6.527343 24.527343-4.253907 50.378906-26.277344 62.992187zm0 0"/><path d="m200.5 313.597656-9.347656-14.015625c-1.566406-2.101562-4.035156-3.335937-6.652344-3.335937-2.621094 0-5.089844 1.234375-6.65625 3.335937l-9.34375 14.015625-9.347656-14.015625-13.308594 8.878907 16 24c1.566406 2.097656 4.035156 3.332031 6.65625 3.332031 2.617188 0 5.085938-1.234375 6.652344-3.332031l9.347656-14.066407 9.34375 14.019531c1.480469 2.222657 3.980469 3.558594 6.65625 3.558594 2.671875 0 5.171875-1.335937 6.652344-3.558594l16-24-13.308594-8.882812zm0 0"/><path d="m176.5 191.996094h16v32h-16zm0 0"/><path d="m93.996094 232.804688 11.3125-11.316407 22.625 22.628907-11.3125 11.3125zm0 0"/><path d="m64.5 303.996094h32v16h-32zm0 0"/><path d="m93.988281 391.183594 22.628907-22.625 11.3125 11.3125-22.625 22.628906zm0 0"/><path d="m241.070312 379.882812 11.316407-11.316406 22.625 22.628906-11.3125 11.3125zm0 0"/><path d="m272.5 303.996094h32v16h-32zm0 0"/><path d="m241.074219 244.117188 22.628906-22.628907 11.3125 11.3125-22.625 22.628907zm0 0"/></g></svg>