<svg height="472pt" viewBox="-3 0 471 472" width="472pt" xmlns="http://www.w3.org/2000/svg"><path d="m408.5 120h-352c-17.671875 0-32 14.328125-32 32v272h416v-272c0-17.671875-14.328125-32-32-32zm0 0" fill="#5aaae7"/><path d="m448.5 472h-432c-8.824219-.027344-15.972656-7.175781-16-16v-32h464v32c-.027344 8.824219-7.175781 15.972656-16 16zm0 0" fill="#acabb1"/><path d="m272.5 424-8 24h-64l-8-24zm0 0" fill="#898890"/><path d="m184.5 328h96c0 17.671875-14.328125 32-32 32h-32c-17.671875 0-32-14.328125-32-32zm0 0" fill="#c6c5ca"/><path d="m280.5 296c8.824219.027344 15.972656 7.175781 16 16-.066406 8.808594-7.191406 15.933594-16 16h-96c-8.824219-.027344-15.972656-7.175781-16-16 .066406-8.808594 7.191406-15.933594 16-16zm0 0" fill="#acabb1"/><path d="m290.101562 264.078125c8.164063.84375 14.375 7.714844 14.398438 15.921875-.066406 8.808594-7.191406 15.933594-16 16h-112c-8.824219-.027344-15.972656-7.175781-16-16-.023438-4.246094 1.679688-8.316406 4.71875-11.28125 2.589844-2.625 6.011719-4.265625 9.679688-4.640625h.082031c.503906-.066406 1.011719-.09375 1.519531-.078125h112c.507812-.015625 1.015625.011719 1.519531.078125zm0 0" fill="#898890"/><path d="m333.699219 120c-20.570313-43.316406-66.433594-68.734375-114.066407-63.210938-47.636718 5.519532-86.46875 40.753907-96.585937 87.628907-10.113281 46.875 10.734375 94.988281 51.851563 119.660156h.082031c.503906-.066406 1.011719-.09375 1.519531-.078125h112c.507812-.015625 1.015625.011719 1.519531.078125h.082031c49.429688-29.660156 68.289063-91.984375 43.597657-144.078125zm0 0" fill="#ffd422"/><path d="m48.5 384h368v16h-368zm0 0" fill="#1e81ce"/><g fill="#ffa733"><path d="m224.5 0h16v32h-16zm0 0"/><path d="m323.007812 66.175781 22.628907-22.625 11.3125 11.3125-22.628907 22.628907zm0 0"/><path d="m368.5 160h32v16h-32zm0 0"/><path d="m323.007812 269.824219 11.308594-11.3125 22.632813 22.621093-11.3125 11.316407zm0 0"/><path d="m108.046875 281.136719 22.628906-22.628907 11.3125 11.316407-22.625 22.625zm0 0"/><path d="m64.5 160h32v16h-32zm0 0"/><path d="m108.046875 54.863281 11.3125-11.316406 22.628906 22.625-11.308593 11.3125zm0 0"/></g><path d="m240.5 160h-16c-4.417969 0-8-3.582031-8-8s3.582031-8 8-8h16c4.417969 0 8 3.582031 8 8h16c0-13.253906-10.746094-24-24-24v-8h-16v8c-13.253906 0-24 10.746094-24 24s10.746094 24 24 24h16c4.417969 0 8 3.582031 8 8s-3.582031 8-8 8h-16c-4.417969 0-8-3.582031-8-8h-16c0 13.253906 10.746094 24 24 24v8h16v-8c13.253906 0 24-10.746094 24-24s-10.746094-24-24-24zm0 0" fill="#ff5023"/><path d="m280.5 160h16v16h-16zm0 0" fill="#ddb200"/><path d="m168.5 160h16v16h-16zm0 0" fill="#ddb200"/></svg>