<svg xmlns="http://www.w3.org/2000/svg" width="144.346" height="42.019" viewBox="0 0 144.346 42.019">
  <path id="Path_2088" data-name="Path 2088" d="M19.543,28.646v4.662H0V2.663H5.551V28.646Zm22.2-6.885a15.083,15.083,0,0,1-.889,5.107,11.235,11.235,0,0,1-2.223,3.773,10.212,10.212,0,0,1-3.551,2.445,12.087,12.087,0,0,1-9.1,0,10.164,10.164,0,0,1-3.551-2.445,11.409,11.409,0,0,1-2.223-3.773,14.594,14.594,0,0,1-.889-5.107,14.342,14.342,0,0,1,.889-5.107,10.97,10.97,0,0,1,2.223-3.773,10.212,10.212,0,0,1,3.551-2.445,11.3,11.3,0,0,1,4.44-.889,11.482,11.482,0,0,1,4.44.889,9.983,9.983,0,0,1,3.551,2.445,11.7,11.7,0,0,1,2.223,3.773,14.457,14.457,0,0,1,.889,5.107h.222Zm-5.551,0a9.1,9.1,0,0,0-1.556-5.551,4.883,4.883,0,0,0-4.218-2,4.883,4.883,0,0,0-4.218,2,9.13,9.13,0,0,0-1.556,5.551,9.317,9.317,0,0,0,1.556,5.551,4.883,4.883,0,0,0,4.218,2,4.883,4.883,0,0,0,4.218-2A9.281,9.281,0,0,0,36.2,21.761Zm12.658-.667A7.1,7.1,0,0,0,50.41,26.2a5.131,5.131,0,0,0,3.773,1.556l2.445-.445,1.778-.889V14.432H54.855a5.327,5.327,0,0,0-4.44,2A7.761,7.761,0,0,0,48.855,21.094Zm15.1,10a10.453,10.453,0,0,1-2.889,8.218,12.452,12.452,0,0,1-8.663,2.667l-4.218-.445-3.773-.889L45.3,35.98l3.106.889,3.773.445a6.436,6.436,0,0,0,4.662-1.334,5.314,5.314,0,0,0,1.334-4V31.1l-2.223.889-3.106.445a11.059,11.059,0,0,1-4-.667,8.609,8.609,0,0,1-3.106-2,9.569,9.569,0,0,1-2-3.551,14.225,14.225,0,0,1-.667-4.884,13.549,13.549,0,0,1,.889-4.662,9.916,9.916,0,0,1,2.223-3.551,10.451,10.451,0,0,1,3.551-2.445,13.147,13.147,0,0,1,4.884-.889l4.884.445,4,.889Zm25.094-9.329a15.083,15.083,0,0,1-.889,5.107,11.235,11.235,0,0,1-2.223,3.773,10.212,10.212,0,0,1-3.551,2.445,12.087,12.087,0,0,1-9.1,0,10.164,10.164,0,0,1-3.551-2.445,11.409,11.409,0,0,1-2.223-3.773,14.594,14.594,0,0,1-.889-5.107,14.342,14.342,0,0,1,.889-5.107,11.235,11.235,0,0,1,2.223-3.773,10.212,10.212,0,0,1,3.551-2.445,11.3,11.3,0,0,1,4.44-.889,11.482,11.482,0,0,1,4.44.889,9.746,9.746,0,0,1,3.551,2.445,11.7,11.7,0,0,1,2.223,3.773,14.457,14.457,0,0,1,.889,5.107Zm-5.551,0a9.118,9.118,0,0,0-1.334-5.551,5.33,5.33,0,0,0-7.5-.713,5.811,5.811,0,0,0-.713.713,9.13,9.13,0,0,0-1.556,5.551,9.317,9.317,0,0,0,1.556,5.551,5.33,5.33,0,0,0,7.5.713,5.811,5.811,0,0,0,.713-.713,9.353,9.353,0,0,0,1.556-5.551Zm5.329,19.987H87.273L85.5,41.3l.667-4.44h2.445a2.886,2.886,0,0,0,2.667-1.111,5.743,5.743,0,0,0,.667-3.329V10.214H97.27V32.869a9.325,9.325,0,0,1-2.223,6.662A8.458,8.458,0,0,1,88.829,41.749ZM97.709,3.33a3.116,3.116,0,0,1-.889,2.445,3.5,3.5,0,0,1-4.667,0,3.116,3.116,0,0,1-.889-2.445A3.116,3.116,0,0,1,92.153.885a3.5,3.5,0,0,1,4.667,0A3.1,3.1,0,0,1,97.709,3.33Zm24.872,18.432a15.083,15.083,0,0,1-.889,5.107,10.97,10.97,0,0,1-2.223,3.773,10.212,10.212,0,0,1-3.551,2.445,12.087,12.087,0,0,1-9.1,0,10.164,10.164,0,0,1-3.551-2.445,11.7,11.7,0,0,1-2.223-3.773,14.594,14.594,0,0,1-.889-5.107,14.342,14.342,0,0,1,.889-5.107,11.235,11.235,0,0,1,2.223-3.773,10.212,10.212,0,0,1,3.551-2.445,11.3,11.3,0,0,1,4.44-.889,11.482,11.482,0,0,1,4.44.889,9.983,9.983,0,0,1,3.551,2.445,11.7,11.7,0,0,1,2.223,3.773,14.457,14.457,0,0,1,.889,5.107h.222Zm-5.551,0a9.1,9.1,0,0,0-1.556-5.551,5.33,5.33,0,0,0-7.5-.713,5.811,5.811,0,0,0-.713.713,9.13,9.13,0,0,0-1.556,5.551,9.317,9.317,0,0,0,1.556,5.551,5.33,5.33,0,0,0,7.5.713,5.811,5.811,0,0,0,.713-.713A9.281,9.281,0,0,0,117.03,21.761Zm27.317-11.547a169.013,169.013,0,0,1-8.44,23.983l-1.778,3.329a10.235,10.235,0,0,1-2,2.445L129.46,41.3l-3.329.445h-2.445l-1.778-.667.889-4.218,3.106.667a4.867,4.867,0,0,0,3.329-1.111,8.263,8.263,0,0,0,2-3.106q-2.442-5.109-4.662-10.88a117.094,117.094,0,0,1-4.218-12.214h5.773l1.111,4,1.334,4.44,1.556,4.44,1.778,4.218q1.334-4,2.667-8.44l2.223-8.663h5.551Z" transform="translate(0 0.009)" fill="#343434"/>
</svg>
