<?xml version="1.0"?>
<svg xmlns="http://www.w3.org/2000/svg" id="Layer_1" data-name="Layer 1" viewBox="0 0 512 512" width="512" height="512"><title>Set square</title><path d="M460.018,88.636,381.809,10.427a8,8,0,0,0-11.314,0L10.427,370.5a8,8,0,0,0,0,11.313l78.209,78.209a8,8,0,0,0,11.314,0L460.018,99.95A8,8,0,0,0,460.018,88.636ZM422.7,114.644l-12.466-12.466a8,8,0,1,0-11.314,11.313l12.466,12.466-12.665,12.666L394.5,134.4a8,8,0,1,0-11.314,11.314l4.223,4.223-13.415,13.415-12.466-12.466A8,8,0,1,0,350.21,162.2l12.466,12.466L350.01,187.33l-4.223-4.223a8,8,0,0,0-11.313,11.313l4.223,4.224-12.665,12.665-12.466-12.466a8,8,0,0,0-11.314,11.313l12.466,12.466-12.665,12.666-4.223-4.224a8,8,0,0,0-11.314,11.314l4.223,4.223-13.415,13.415L264.858,247.55a8,8,0,0,0-11.313,11.314l12.466,12.466L253.345,284l-4.223-4.223a8,8,0,0,0-11.313,11.313l4.223,4.224-12.665,12.665L216.9,295.508a8,8,0,1,0-11.314,11.313l12.466,12.466-12.665,12.666-4.223-4.224a8,8,0,1,0-11.314,11.314l4.223,4.223-13.415,13.415-12.466-12.466a8,8,0,1,0-11.313,11.314L169.346,368,156.68,380.66l-4.223-4.223a8,8,0,1,0-11.313,11.313l4.223,4.224L94.293,443.047l-66.9-66.9L376.152,27.4l66.9,66.9Z"/><path d="M72.9,357.771a28.124,28.124,0,0,0,39.774,39.773h0A28.124,28.124,0,0,0,72.9,357.771Zm28.46,28.46a12.119,12.119,0,1,1,0-17.147A12.138,12.138,0,0,1,101.361,386.231Z"/><path d="M499.062,159.617a8.037,8.037,0,0,0-8.717,1.652L153.806,490.2A8.055,8.055,0,0,0,159.388,504H495.916A8.145,8.145,0,0,0,504,495.916V166.99A8.038,8.038,0,0,0,499.062,159.617ZM179.018,488,488,186v56H465.689a8,8,0,0,0,0,16H488v26H475.89a8,8,0,0,0,0,16H488v29H465.689a8,8,0,0,0,0,16H488v30H475.89a8,8,0,0,0,0,16H488v29H465.689a8,8,0,0,0,0,16H488v26H475.89a8,8,0,0,0,0,16H488v10Z"/><path d="M440.042,296.911a8.091,8.091,0,0,0-8.723,1.547L284.584,437.674a7.631,7.631,0,0,0-1.938,8.529,7.768,7.768,0,0,0,7.416,4.8H436.768c4.418,0,8.232-3.1,8.232-7.522V304.261A8.107,8.107,0,0,0,440.042,296.911ZM429,435H310.114L429,322.881Z"/></svg>
