<svg xmlns="http://www.w3.org/2000/svg" width="179.001" height="39.057" viewBox="0 0 179.001 39.057">
  <g id="Pipedrive_Logo" transform="translate(-22.601 -17.679)">
    <path id="Path_2076" data-name="Path 2076" d="M125.664,125.475a8.432,8.432,0,0,0-6.437,2.621c-.117-.932-.728-2.126-3.116-2.126H110.9v5.417h2.126c.349,0,.466.117.466.466v24.785h6.174v-9.961a8.238,8.238,0,0,0,5.679,2.1c6.029,0,10.252-4.776,10.252-11.65.029-6.961-3.99-11.65-9.932-11.65m-1.252,17.912c-3.32,0-4.835-3.175-4.835-6.145,0-4.66,2.534-6.32,4.922-6.32,2.912,0,4.893,2.5,4.893,6.262-.029,4.31-2.534,6.2-4.98,6.2" transform="translate(-88.297 -99.903)" fill="#203232"/>
    <path id="Path_2077" data-name="Path 2077" d="M238.6,144.474V131.338c0-2.213-1.078-3.291-3.262-3.291H229.8v5.417h2.126c.349,0,.466.117.466.466v13.077c0,2.243,1.048,3.291,3.262,3.291h5.534v-5.388h-2.126c-.32.029-.466-.116-.466-.437" transform="translate(-182.967 -101.951)" fill="#203232"/>
    <path id="Path_2078" data-name="Path 2078" d="M294.441,125.475a8.562,8.562,0,0,0-6.466,2.621c-.116-.932-.728-2.126-3.116-2.126h-5.184v5.417H281.8c.35,0,.466.117.466.466v24.785H288.5v-9.961a8.3,8.3,0,0,0,5.679,2.1c6.029,0,10.252-4.776,10.252-11.65,0-6.961-4.019-11.65-9.99-11.65m-1.252,17.912c-3.32,0-4.835-3.175-4.835-6.145,0-4.66,2.534-6.32,4.922-6.32,2.913,0,4.893,2.5,4.893,6.262,0,4.31-2.5,6.2-4.98,6.2" transform="translate(-222.678 -99.903)" fill="#203232"/>
    <path id="Path_2079" data-name="Path 2079" d="M414.021,125.475c-6.67,0-11.3,4.806-11.3,11.65,0,6.757,5.009,11.65,11.941,11.65a13.5,13.5,0,0,0,8.912-3.349l.262-.233-2.679-4.456-.408.379a9.317,9.317,0,0,1-5.708,2.272,5.736,5.736,0,0,1-5.912-4.864h14.65l.029-.408c0-.058.146-1.369.146-2.01,0-6.349-3.99-10.631-9.932-10.631m-4.66,8.446a4.611,4.611,0,0,1,4.66-3.437,3.661,3.661,0,0,1,3.553,3.437Z" transform="translate(-320.647 -99.903)" fill="#203232"/>
    <path id="Path_2080" data-name="Path 2080" d="M530.524,111.7V90.18c0-2.213-1.078-3.291-3.291-3.291H521.7v5.417h2.126c.349,0,.466.117.466.466v3.9a8.307,8.307,0,0,0-5.767-1.893c-6,0-10.194,4.806-10.194,11.65,0,6.961,4.019,11.65,9.961,11.65a8.114,8.114,0,0,0,6.349-2.679c.117.961.757,2.184,3.058,2.184h5.359V112.2H530.99c-.35-.029-.466-.175-.466-.5m-11.038.961c-2.942,0-4.835-2.446-4.835-6.262,0-3.7,1.98-6.174,4.922-6.174,3.349,0,4.835,3.087,4.835,6.145,0,4.66-2.534,6.291-4.922,6.291" transform="translate(-404.734 -69.181)" fill="#203232"/>
    <path id="Path_2081" data-name="Path 2081" d="M638.886,126.475a7.494,7.494,0,0,0-6.349,3.844v-.5c0-2.01-1.107-3.058-3.291-3.058h-5.3v5.417h2.126c.349,0,.466.117.466.466v16.4h6.174v-8.912a12.571,12.571,0,0,1,.437-3.349,5.537,5.537,0,0,1,5.388-4.165,8.251,8.251,0,0,1,1.223.087l.524.087V126.65l-.379-.058a3.615,3.615,0,0,0-1.019-.117" transform="translate(-496.786 -100.7)" fill="#203232"/>
    <path id="Path_2082" data-name="Path 2082" d="M714.961,144.474V131.338c0-2.213-1.078-3.291-3.262-3.291h-5.01v5.417h1.6c.349,0,.466.117.466.466v13.077c0,2.243,1.049,3.291,3.262,3.291h5.534v-5.388h-2.126c-.32.029-.466-.116-.466-.437" transform="translate(-562.668 -101.951)" fill="#203232"/>
    <path id="Path_2083" data-name="Path 2083" d="M772.767,128.047h-3.291c-1.922,0-2.971.67-3.582,2.3l-4.019,11.242c-.146.408-.262.874-.379,1.34-.117-.437-.262-.932-.408-1.34l-4.019-11.242c-.612-1.66-1.6-2.3-3.582-2.3h-3.495v5.417h.9c.5,0,.641.175.757.466l6.233,16.4h6.961l6.233-16.4c.117-.291.262-.466.757-.466h.961v-5.417Z" transform="translate(-597.145 -101.951)" fill="#203232"/>
    <path id="Path_2084" data-name="Path 2084" d="M869.9,125.475c-6.67,0-11.3,4.806-11.3,11.65,0,6.757,5.01,11.65,11.941,11.65a13.5,13.5,0,0,0,8.912-3.349l.262-.233-2.68-4.456-.408.379a9.292,9.292,0,0,1-5.679,2.272,5.736,5.736,0,0,1-5.912-4.864h14.65l.029-.408c0-.058.117-1.369.117-2.01,0-6.349-3.99-10.631-9.932-10.631m-4.66,8.446a4.611,4.611,0,0,1,4.66-3.437,3.661,3.661,0,0,1,3.553,3.437Z" transform="translate(-683.621 -99.903)" fill="#203232"/>
    <rect id="Rectangle_814" data-name="Rectangle 814" width="5.505" height="5.796" transform="translate(49.687 17.679)" fill="#203232"/>
    <rect id="Rectangle_816" data-name="Rectangle 816" width="5.505" height="5.796" transform="translate(146.381 17.679)" fill="#203232"/>
    <path id="Path_2085" data-name="Path 2085" d="M962.213,126h.815v2.213h.612V126h.815v-.524h-2.243Z" transform="translate(-766.115 -99.903)" fill="#203232"/>
    <path id="Path_2086" data-name="Path 2086" d="M976.886,125.475l-.612,1.893-.641-1.893h-.845v2.738h.553V126.29h.029l.67,1.922h.466l.67-1.922v1.922h.553v-2.738Z" transform="translate(-776.129 -99.903)" fill="#203232"/>
  </g>
</svg>
